<svg xmlns="http://www.w3.org/2000/svg" fill="none" viewBox="0 0 22 24">
  <path fill="#D9D9D9" d="M22 4.09c0 2.26-1.847 4.092-4.125 4.092a4.13 4.13 0 0 1-2.887-1.17l-6.871 3.953a4.065 4.065 0 0 1 0 2.07l6.87 3.952a4.13 4.13 0 0 1 2.888-1.169c2.278 0 4.125 1.832 4.125 4.091C22 22.17 20.153 24 17.875 24s-4.125-1.831-4.125-4.09c0-.358.046-.705.133-1.036l-6.87-3.952a4.129 4.129 0 0 1-2.888 1.169C1.847 16.09 0 14.259 0 12c0-2.26 1.847-4.09 4.125-4.09a4.13 4.13 0 0 1 2.887 1.168l6.871-3.952a4.066 4.066 0 0 1-.133-1.035C13.75 1.83 15.597 0 17.875 0S22 1.832 22 4.09Z"/>
</svg>
