<svg width="10" height="9" viewBox="0 0 10 9" fill="none" xmlns="http://www.w3.org/2000/svg">
<path d="M0.242823 4.18728C0.0159506 4.18728 -0.0865343 3.9054 0.0880075 3.7615L4.38076 0.222016C4.73976 -0.0740052 5.26026 -0.0740052 5.61926 0.222016L9.91199 3.7615C10.0865 3.9054 9.98406 4.18728 9.75719 4.18728H8.8774V8.51873C8.8774 8.78449 8.66041 9 8.39272 9H6.45402C6.18638 9 5.96934 8.78449 5.96934 8.51873V6.11237C5.96934 5.84656 5.75235 5.6311 5.48466 5.6311H4.51531C4.24762 5.6311 4.03063 5.84656 4.03063 6.11237V8.51873C4.03063 8.78449 3.81365 9 3.54597 9H1.60727C1.33959 9 1.12259 8.78449 1.12259 8.51873V4.18728H0.242823Z" fill="#737373"/>
</svg>
